# This file uses centimeters as units for non-parametric coordinates.

g default
v -1.000000 -1.000000 1.000000
v 1.000000 -1.000000 1.000000
v -1.000000 0.000000 1.000000
v 1.000000 0.000000 1.000000
v -1.000000 0.000000 -1.000000
v 1.000000 0.000000 -1.000000
v -1.000000 -1.000000 -1.000000
v 1.000000 -1.000000 -1.000000
vt 0.000000 0.000000
vt 1.000000 0.000000
vt 1.000000 0.000000
vt 0.000000 0.000000
vt 1.000000 1.000000
vt 0.000000 1.000000
vt 1.000000 1.000000
vt 0.000000 1.000000
vn 0.000000 0.000000 1.000000
vn 0.000000 0.000000 1.000000
vn 0.000000 0.000000 1.000000
vn 0.000000 0.000000 1.000000
vn 0.000000 1.000000 0.000000
vn 0.000000 1.000000 0.000000
vn 0.000000 1.000000 0.000000
vn 0.000000 1.000000 0.000000
vn 0.000000 0.000000 -1.000000
vn 0.000000 0.000000 -1.000000
vn 0.000000 0.000000 -1.000000
vn 0.000000 0.000000 -1.000000
vn 0.000000 -1.000000 0.000000
vn 0.000000 -1.000000 0.000000
vn 0.000000 -1.000000 0.000000
vn 0.000000 -1.000000 0.000000
vn 1.000000 0.000000 0.000000
vn 1.000000 0.000000 0.000000
vn 1.000000 0.000000 0.000000
vn 1.000000 0.000000 0.000000
vn -1.000000 0.000000 0.000000
vn -1.000000 0.000000 0.000000
vn -1.000000 0.000000 0.000000
vn -1.000000 0.000000 0.000000
s off
g pCube1
f 1/1/1 2/2/2 4/3/3 3/4/4
f 3/4/5 4/3/6 6/5/7 5/6/8
f 5/6/9 6/5/10 8/7/11 7/8/12
f 7/8/13 8/7/14 2/2/15 1/1/16
f 2/2/17 8/7/18 6/5/19 4/3/20
f 7/8/21 1/1/22 3/4/23 5/6/24
g default
v -1.000000 -1.000000 0.000000
v 1.000000 -1.000000 0.000000
v -0.892811 0.000000 0.749458
v 0.957124 0.000000 1.078173
v -1.000000 0.000000 0.000000
v 1.000000 0.000000 0.000000
v 0.616645 0.000000 0.277822
v 0.666667 0.000000 0.000000
v 0.666667 -1.000000 0.000000
v 0.461960 0.000000 1.242530
v 0.333333 0.000000 0.000000
v 0.333333 -1.000000 0.000000
v 0.050022 0.000000 0.813774
v -0.000000 0.000000 0.000000
v -0.000000 -1.000000 0.000000
v -0.404793 0.000000 1.178217
v -0.333333 0.000000 0.000000
v -0.333333 -1.000000 0.000000
v -0.609499 0.000000 0.577954
v -0.666667 0.000000 0.000000
v -0.666667 -1.000000 0.000000
vt 0.000000 0.554075
vt 0.166667 0.554075
vt 0.195250 0.296351
vt 0.053595 0.219873
vt 0.166667 0.554075
vt 0.000000 0.554075
vt 1.000000 0.554075
vt 1.000000 0.554075
vt 0.978562 0.073291
vt 0.808323 0.430187
vt 0.833333 0.554075
vt 0.833333 0.554075
vt 0.730980 0.000000
vt 0.666667 0.554075
vt 0.666667 0.554075
vt 0.525011 0.191193
vt 0.500000 0.554075
vt 0.500000 0.554075
vt 0.297604 0.028679
vt 0.333333 0.554075
vt 0.333333 0.554075
vn 0.223487 -0.551688 0.803551
vn -0.272790 -0.590660 0.759412
vn -0.301442 -0.588226 0.750415
vn 0.223487 -0.551688 0.803551
vn 0.000000 1.000000 0.000000
vn 0.000000 1.000000 0.000000
vn 0.000000 1.000000 0.000000
vn 0.000000 1.000000 0.000000
vn 0.000000 0.000000 -1.000000
vn 0.000000 0.000000 -1.000000
vn 0.000000 0.000000 -1.000000
vn 0.000000 0.000000 -1.000000
vn 0.999210 0.000000 0.039736
vn 0.999210 0.000000 0.039736
vn 0.999210 0.000000 0.039736
vn -0.989927 0.000000 0.141582
vn -0.989927 0.000000 0.141582
vn -0.989927 0.000000 0.141582
vn 0.000000 1.000000 0.000000
vn 0.000000 1.000000 0.000000
vn 0.000000 1.000000 0.000000
vn 0.000000 1.000000 0.000000
vn 0.000000 0.000000 -1.000000
vn 0.000000 0.000000 -1.000000
vn 0.000000 0.000000 -1.000000
vn 0.000000 0.000000 -1.000000
vn 0.119089 -0.609433 0.783843
vn 0.092193 -0.610624 0.786536
vn -0.691749 -0.426984 0.582381
vn -0.691749 -0.426984 0.582381
vn 0.000000 1.000000 -0.000000
vn 0.000000 1.000000 -0.000000
vn 0.000000 0.000000 -1.000000
vn 0.000000 0.000000 -1.000000
vn 0.265795 -0.654621 0.707689
vn 0.276966 -0.652133 0.705700
vn 0.000000 1.000000 -0.000000
vn 0.000000 1.000000 -0.000000
vn 0.000000 0.000000 -1.000000
vn 0.000000 0.000000 -1.000000
vn -0.037218 -0.700881 0.712307
vn -0.024438 -0.701246 0.712500
vn 0.000000 1.000000 0.000000
vn 0.000000 1.000000 0.000000
vn 0.000000 0.000000 -1.000000
vn 0.000000 0.000000 -1.000000
vn -0.094958 -0.686212 0.721177
vn -0.117365 -0.683776 0.720192
s 1
g pCube2
f 9/9/25 29/10/26 27/11/27 11/12/28
s 2
f 11/12/29 27/11/30 28/13/31 13/14/32
s 3
f 13/14/33 28/13/34 29/10/35 9/9/36
s off
f 10/15/37 14/16/38 12/17/39
f 9/9/40 11/12/41 13/14/42
s 2
f 15/18/43 12/17/44 14/16/45 16/19/46
s 3
f 17/20/47 16/19/48 14/16/49 10/15/50
s 1
f 15/18/51 17/20/52 10/15/53 12/17/54
s 2
f 18/21/55 15/18/43 16/19/46 19/22/56
s 3
f 20/23/57 19/22/58 16/19/48 17/20/47
s 1
f 18/21/59 20/23/60 17/20/52 15/18/51
s 2
f 21/24/61 18/21/55 19/22/56 22/25/62
s 3
f 23/26/63 22/25/64 19/22/58 20/23/57
s 1
f 21/24/65 23/26/66 20/23/60 18/21/59
s 2
f 24/27/67 21/24/61 22/25/62 25/28/68
s 3
f 26/29/69 25/28/70 22/25/64 23/26/63
s 1
f 24/27/71 26/29/72 23/26/66 21/24/65
s 2
f 27/11/30 24/27/67 25/28/68 28/13/31
s 3
f 29/10/35 28/13/34 25/28/70 26/29/69
s 1
f 27/11/27 29/10/26 26/29/72 24/27/71
g default
v -1.000000 -1.000000 0.000000
v 1.000000 -1.000000 0.000000
v -0.902298 0.000000 0.578681
v 0.928661 0.000000 0.451990
v -1.000000 0.000000 0.000000
v 1.000000 0.000000 0.000000
v 0.637437 0.000000 0.756279
v 0.666667 0.000000 0.000000
v 0.666667 -1.000000 0.000000
v 0.262720 0.000000 0.236841
v 0.333333 0.000000 0.000000
v 0.333333 -1.000000 0.000000
v 0.021559 0.000000 0.756848
v -0.000000 0.000000 0.000000
v -0.000000 -1.000000 0.000000
v -0.196065 0.000000 0.324330
v -0.333333 0.000000 0.000000
v -0.333333 -1.000000 0.000000
v -0.578825 0.000000 0.943897
v -0.666667 0.000000 0.000000
v -0.666667 -1.000000 0.000000
vt 0.000000 0.554075
vt 0.166667 0.554075
vt 0.210588 0.133168
vt 0.048851 0.296027
vt 0.166667 0.554075
vt 0.000000 0.554075
vt 1.000000 0.554075
vt 1.000000 0.554075
vt 0.964331 0.352522
vt 0.818718 0.216832
vt 0.833333 0.554075
vt 0.833333 0.554075
vt 0.631360 0.448462
vt 0.666667 0.554075
vt 0.666667 0.554075
vt 0.510779 0.216578
vt 0.500000 0.554075
vt 0.500000 0.554075
vt 0.401968 0.409448
vt 0.333333 0.554075
vt 0.333333 0.554075
vn -0.412980 -0.527101 0.742706
vn 0.134501 -0.579416 0.803857
vn 0.149479 -0.578314 0.802003
vn -0.412980 -0.527101 0.742706
vn 0.000000 1.000000 0.000000
vn 0.000000 1.000000 0.000000
vn 0.000000 1.000000 0.000000
vn 0.000000 1.000000 0.000000
vn 0.000000 0.000000 -1.000000
vn 0.000000 0.000000 -1.000000
vn 0.000000 0.000000 -1.000000
vn 0.000000 0.000000 -1.000000
vn 0.987773 0.000000 0.155902
vn 0.987773 0.000000 0.155902
vn 0.987773 0.000000 0.155902
vn -0.986045 0.000000 0.166479
vn -0.986045 0.000000 0.166479
vn -0.986045 0.000000 0.166479
vn 0.000000 1.000000 0.000000
vn 0.000000 1.000000 0.000000
vn 0.000000 1.000000 0.000000
vn 0.000000 1.000000 0.000000
vn 0.000000 0.000000 -1.000000
vn 0.000000 0.000000 -1.000000
vn 0.000000 0.000000 -1.000000
vn 0.000000 0.000000 -1.000000
vn -0.136901 -0.480758 0.866101
vn -0.135272 -0.480915 0.866269
vn 0.388420 -0.462107 0.797237
vn 0.388420 -0.462107 0.797237
vn 0.000000 1.000000 -0.000000
vn 0.000000 1.000000 -0.000000
vn 0.000000 0.000000 -1.000000
vn 0.000000 0.000000 -1.000000
vn 0.010541 -0.451861 0.892026
vn -0.015691 -0.452575 0.891588
vn 0.000000 1.000000 -0.000000
vn 0.000000 1.000000 0.000000
vn 0.000000 0.000000 -1.000000
vn 0.000000 0.000000 -1.000000
vn 0.071242 -0.428998 0.900491
vn 0.065145 -0.429188 0.900863
vn 0.000000 1.000000 0.000000
vn 0.000000 1.000000 0.000000
vn 0.000000 0.000000 -1.000000
vn 0.000000 0.000000 -1.000000
vn 0.110005 -0.522943 0.845239
vn 0.152711 -0.524809 0.837409
s 1
g pCube3
f 30/30/73 50/31/74 48/32/75 32/33/76
s 2
f 32/33/77 48/32/78 49/34/79 34/35/80
s 3
f 34/35/81 49/34/82 50/31/83 30/30/84
s off
f 31/36/85 35/37/86 33/38/87
f 30/30/88 32/33/89 34/35/90
s 2
f 36/39/91 33/38/92 35/37/93 37/40/94
s 3
f 38/41/95 37/40/96 35/37/97 31/36/98
s 1
f 36/39/99 38/41/100 31/36/101 33/38/102
s 2
f 39/42/103 36/39/91 37/40/94 40/43/104
s 3
f 41/44/105 40/43/106 37/40/96 38/41/95
s 1
f 39/42/107 41/44/108 38/41/100 36/39/99
s 2
f 42/45/109 39/42/103 40/43/104 43/46/110
s 3
f 44/47/111 43/46/112 40/43/106 41/44/105
s 1
f 42/45/113 44/47/114 41/44/108 39/42/107
s 2
f 45/48/115 42/45/109 43/46/110 46/49/116
s 3
f 47/50/117 46/49/118 43/46/112 44/47/111
s 1
f 45/48/119 47/50/120 44/47/114 42/45/113
s 2
f 48/32/78 45/48/115 46/49/116 49/34/79
s 3
f 50/31/83 49/34/82 46/49/118 47/50/117
s 1
f 48/32/75 50/31/74 47/50/120 45/48/119
g default
v -1.000000 0.020430 1.000000
v 1.000000 0.020430 1.000000
v -1.000000 0.020430 -1.000000
v 1.000000 0.020430 -1.000000
vt 0.000000 0.108150
vt 1.000000 0.108150
vt 1.000000 1.000000
vt 0.000000 1.000000
vn 0.000000 1.000000 0.000000
vn 0.000000 1.000000 0.000000
vn 0.000000 1.000000 0.000000
vn 0.000000 1.000000 0.000000
s off
g pCube4
f 51/51/121 52/52/122 54/53/123 53/54/124
